<svg xmlns="http://www.w3.org/2000/svg" viewBox="0 0 512 512" xml:space="preserve">
  <path style="fill:#e5cfae" d="m384 484.571 79.835-31.789L384 237.714zM128 27.429 48.165 59.218 128 274.286z"/>
    <path style="fill:#fdeccd" d="M128 512h256V0H128z"/>
    <path d="M274.286 128.236c0-10.231-7.817-18.523-18.048-18.523s-18.523 8.055-18.523 18.286 8.293 18.286 18.523 18.286 18.048-7.818 18.048-18.049m64 320c0-10.231-7.817-18.523-18.048-18.523s-18.523 8.055-18.523 18.286 8.293 18.286 18.523 18.286 18.048-7.818 18.048-18.049m-128-128c0-10.231-7.817-18.523-18.048-18.523s-18.523 8.055-18.523 18.286 8.293 18.286 18.523 18.286c10.231-.001 18.048-7.818 18.048-18.049M384 265.143v-18.286H128v18.286z"/>
</svg>