<svg xmlns="http://www.w3.org/2000/svg" viewBox="128 0 256 512" xml:space="preserve"><g/><path style="fill:#fdeccd" d="M128 512h256V0H128z"/><path d="M384 265.143v-18.286H128v18.286zm-45.714-72.907c0-10.231-7.817-18.523-18.048-18.523s-18.523 8.055-18.523 18.286 8.293 18.286 18.523 18.286 18.048-7.818 18.048-18.049m-64-64c0-10.231-7.817-18.523-18.048-18.523s-18.523 8.055-18.523 18.286 8.293 18.286 18.523 18.286 18.048-7.818 18.048-18.049m-64-64c0-10.231-7.817-18.523-18.048-18.523s-18.523 8.055-18.523 18.286 8.293 18.286 18.523 18.286c10.231-.001 18.048-7.818 18.048-18.049m128 384c0-10.231-7.817-18.523-18.048-18.523s-18.523 8.055-18.523 18.286 8.293 18.286 18.523 18.286 18.048-7.818 18.048-18.049m0-64c0-10.231-7.817-18.523-18.048-18.523s-18.523 8.055-18.523 18.286 8.293 18.286 18.523 18.286 18.048-7.818 18.048-18.049m-128 0c0-10.231-7.817-18.523-18.048-18.523s-18.523 8.055-18.523 18.286 8.293 18.286 18.523 18.286c10.231-.001 18.048-7.818 18.048-18.049m0-64c0-10.231-7.817-18.523-18.048-18.523s-18.523 8.055-18.523 18.286 8.293 18.286 18.523 18.286c10.231-.001 18.048-7.818 18.048-18.049m-18.522 146.05c10.231 0 18.523-7.817 18.523-18.048s-8.055-18.523-18.286-18.523-18.286 8.293-18.286 18.523c.001 10.231 7.818 18.048 18.049 18.048m128-128c10.231 0 18.523-7.817 18.523-18.048s-8.055-18.523-18.286-18.523-18.286 8.293-18.286 18.523c.001 10.231 7.818 18.048 18.049 18.048"/></svg>